<?xml version="1.0" encoding="utf-8"?>
<!-- Generator: Adobe Illustrator 22.1.0, SVG Export Plug-In . SVG Version: 6.00 Build 0)  -->
<svg version="1.1" id="Layer_1" xmlns="http://www.w3.org/2000/svg" xmlns:xlink="http://www.w3.org/1999/xlink" x="0px" y="0px"
	 width="40" height="40" viewBox="0 0 192 192" style="enable-background:new 0 0 192 192;" xml:space="preserve">
<style type="text/css">
	.st0{fill:url(#SVGID_1_);}
	.st1{opacity:0.15;fill:#231F20;}
	.st2{opacity:0.15;fill:#77787B;}
	.st3{opacity:0.15;}
	.st4{fill:#77787B;}
	.st5{fill:#AF822E;}
</style>
<g>
	<linearGradient id="SVGID_1_" gradientUnits="userSpaceOnUse" x1="96" y1="191.0148" x2="96" y2="0.5566">
		<stop  offset="0" style="stop-color:#AF822E"/>
		<stop  offset="0.1502" style="stop-color:#B28734"/>
		<stop  offset="0.3468" style="stop-color:#BC9544"/>
		<stop  offset="0.5692" style="stop-color:#CCAC5F"/>
		<stop  offset="0.8087" style="stop-color:#E3CB85"/>
		<stop  offset="1" style="stop-color:#F8E9A8"/>
	</linearGradient>
	<path class="st0" d="M75,165.9c5.2,1.6,10.7,2.6,16.3,2.9l-1.1-5.2c-5.3-0.5-10.5-1.5-15.4-3.2C74.6,162.3,74.7,164.2,75,165.9
		 M101.9,163.7l-1.1,5.2c5.6-0.4,11.1-1.4,16.3-2.9c0.3-1.7,0.4-3.6,0.2-5.4C112.4,162.1,107.2,163.2,101.9,163.7 M38.5,157
		c14.5,13.7,33.8,22.2,55.1,22.8l-1.1-5.1c-19.1-0.8-36.5-8.5-49.7-20.6L38.5,157z M99.5,174.7l-1.1,5.1
		c21.3-0.6,40.6-9.2,55.1-22.8l-4.3-2.8C136,166.3,118.6,173.9,99.5,174.7 M76,155.1c4.1,1.4,8.4,2.4,12.9,2.9l-1.1-5.2
		c-2.9-0.4-5.6-1-8.3-1.9C77.9,151.8,76.8,153.3,76,155.1 M104.2,152.7l-1.1,5.2c4.5-0.5,8.8-1.5,12.9-2.9c-0.8-1.8-1.9-3.2-3.4-4.2
		C109.9,151.7,107.1,152.3,104.2,152.7 M47.9,150.9c6.6,5.8,14.2,10.4,22.6,13.5c-2.4-1.7-5-4.3-6.1-8.3c-4.3-2.3-8.4-5-12.1-8.1
		L47.9,150.9z M127.6,156.2c-1.1,4-3.8,6.6-6.1,8.3c8.4-3.1,16-7.8,22.6-13.5l-4.4-2.8C136,151.2,131.9,153.9,127.6,156.2 M84.6,147
		c0.7,0.2,1.4,0.3,2.1,0.4l-0.5-2.2C85.7,145.7,85.2,146.3,84.6,147 M105.4,147.4c0.7-0.1,1.4-0.3,2-0.4c-0.7-0.6-1.2-1.3-1.6-1.8
		L105.4,147.4z M57.3,144.8c2.1,1.7,4.4,3.3,6.8,4.7c0.3-2,0.8-3.6,1.5-5c-1.3-0.8-2.6-1.7-3.8-2.6L57.3,144.8z M126.5,144.5
		c0.7,1.4,1.2,3,1.5,5c2.4-1.4,4.6-3,6.8-4.7l-4.5-2.9C129,142.9,127.8,143.7,126.5,144.5 M66.3,139c0.7,0.5,1.4,0.9,2.1,1.4
		c1.5-1.7,2.9-3.2,3.7-5.1L66.3,139z M123.6,140.3c0.7-0.4,1.4-0.9,2.1-1.4l-5.8-3.7C120.7,137.1,122.1,138.6,123.6,140.3
		 M100.9,130.2L96,156.1v-25.6h0c-2.9,0-5.6-0.4-8.3-1l8.3,44.1l8.3-44.1C103.2,129.8,102,130,100.9,130.2 M31.7,130.6
		c2.6,4.9,5.8,9.4,9.5,13.6l2.8-4.4c-3.4-4-6.3-8.4-8.7-13.1C34,127.8,32.7,129.2,31.7,130.6 M148,139.7l2.8,4.4
		c3.6-4.1,6.8-8.7,9.5-13.6c-1-1.4-2.2-2.8-3.6-4C154.3,131.3,151.4,135.7,148,139.7 M51.9,124c0.4,0.6,0.8,1.2,1.2,1.7l1.2-1.9
		C53.6,123.9,52.8,124,51.9,124 M138.9,125.7c0.4-0.6,0.8-1.2,1.2-1.7c-0.9,0-1.7-0.1-2.4-0.2L138.9,125.7z M40.1,123.6
		c2,4,4.4,7.7,7.1,11.1l2.9-4.5c-1.7-2.3-3.3-4.7-4.6-7.2c-0.6-0.1-1.1-0.2-1.7-0.2C42.6,122.9,41.3,123.2,40.1,123.6 M146.5,123.1
		c-1.4,2.5-2.9,5-4.6,7.2l2.9,4.5c2.7-3.4,5.1-7.2,7.1-11.1c-1.2-0.5-2.5-0.7-3.7-0.7C147.6,122.9,147.1,123,146.5,123.1
		 M123.6,116.7l14.9,21.8l-18.1-18.1c-4.4,4.4-9.9,7.6-16.1,9.1l0.4,1.6c0.2,0.8,0.3,1.6,0.5,2.3c0.8,4.4,1.6,8.5,9.3,13
		c6.4,3.7,6.8,11,6.6,13c1-1.1,2.4-3.5,2.6-6.7c0.2-2.8-0.6-7-5.1-11c-6.1-5.4-5.2-11.7-4.1-15l0.2-0.5l36.2,24.7l-25.3-37.1
		C124.9,114.8,124.3,115.8,123.6,116.7 M41.1,150.9l36.2-24.7l0.2,0.5c1.1,3.3,2,9.6-4.1,15c-4.5,4-5.3,8.2-5.1,11
		c0.2,3.2,1.6,5.7,2.6,6.7c-0.2-2,0.3-9.3,6.6-13c7.7-4.5,8.5-8.6,9.3-13c0.1-0.7,0.3-1.5,0.5-2.3l0.4-1.7
		c-6.2-1.5-11.7-4.7-16.1-9.1l-18.1,18.1l14.9-21.8c-0.7-0.9-1.3-1.9-1.9-2.9L41.1,150.9z M45.1,107.9c2.3-0.2,4.4-0.2,6.3-1
		l-6.8-1.5C44.8,106.3,44.9,107.1,45.1,107.9 M140.6,106.9c1.9,0.8,4,0.8,6.3,1c0.2-0.8,0.4-1.6,0.5-2.4L140.6,106.9z M152.7,104.3
		c-0.2,1.5-0.5,3-0.8,4.5c1.5,0.5,3,1.3,4.6,2.5c0.7-2.7,1.2-5.4,1.5-8.1L152.7,104.3z M35.5,111.3c1.6-1.2,3.1-2,4.6-2.5
		c-0.3-1.5-0.6-3-0.8-4.5l-5.2-1.1C34.4,105.9,34.9,108.7,35.5,111.3 M29.7,126.4c-0.5-2.8-0.5-6.6,1.5-10.1
		c-1.4-4.6-2.4-9.4-2.8-14.4l-5.2-1.1C23.8,109.9,26,118.5,29.7,126.4 M163.7,101.9c-0.4,5-1.4,9.8-2.8,14.4c2,3.6,2,7.3,1.5,10.1
		c3.6-7.9,5.9-16.5,6.5-25.6L163.7,101.9z M35.1,153.6l2.8-4.3C25.8,136,18.1,118.7,17.3,99.6l-5.1-1.1
		C12.8,119.8,21.4,139.1,35.1,153.6 M174.7,99.6c-0.8,19.1-8.5,36.5-20.6,49.7l2.8,4.3c13.7-14.5,22.3-33.8,22.9-55.1L174.7,99.6z
		 M130.2,91.1l25.9,4.9h-25.6v0c0,6.5-1.8,12.6-4.9,17.8l1.4,0.9c0.7,0.4,1.3,0.9,2,1.3c3.7,2.5,7.1,4.9,15.8,2.6
		c7.1-1.9,12.6,3,13.9,4.5c0-1.5-0.8-4.2-2.9-6.6c-1.9-2.1-5.4-4.6-11.4-4.2c-8.1,0.5-11.9-4.6-13.5-7.6l-0.2-0.5l43.1-8.1
		l-44.1-8.3C129.8,88.8,130,90,130.2,91.1 M18.4,96l43.1,8.1l-0.2,0.5c-1.5,3.1-5.4,8.2-13.5,7.7c-6-0.4-9.5,2.1-11.4,4.2
		c-2.1,2.4-2.9,5.2-2.9,6.6c1.3-1.6,6.8-6.4,13.9-4.5c8.6,2.3,12.1-0.1,15.8-2.6c0.6-0.4,1.3-0.9,2-1.3l1.4-0.9
		c-2.3-3.9-3.9-8.2-4.6-12.9L35.9,96h25.6v0c0-2.9,0.4-5.6,1-8.3L18.4,96z M94,116.6c-0.5-0.3-0.8-0.6-0.8-0.6s0.4-0.1,0.9-0.2
		c0.5-0.1,1.2-0.1,1.9-0.1c0.6,0,1.3,0.1,1.8,0.1c0.5,0.1,0.9,0.2,0.9,0.2s-0.3,0.3-0.8,0.6c-0.5,0.3-1.1,0.5-2,0.5
		C95.1,117.1,94.5,116.9,94,116.6 M105.4,108.5l0.9-0.3l-0.6,0.7c-2.4,3-5.9,4.7-9.7,4.7c-3.8,0-7.3-1.7-9.7-4.7l-0.6-0.7l0.9,0.3
		c3,1.1,6.2,1.7,9.4,1.7C99.2,110.2,102.4,109.6,105.4,108.5 M100,101c0-0.6-0.1-1.2-0.1-1.2s0.9,0.5,1,1.8c0.2,1.4-1.1,3.3-4.9,3.3
		s-5-1.9-4.9-3.3c0.1-1.3,1-1.8,1-1.8S92,100.4,92,101c0,1.2,1,1.6,4,1.6C99,102.6,100,102.2,100,101 M73.3,104.3
		c-1-2.5-0.5-5,1.2-5.7c1.7-0.7,3.8,0.7,4.9,3.2c1,2.5,0.5,5-1.2,5.7c-0.3,0.1-0.6,0.2-0.9,0.2c0,0,0,0,0,0
		C75.8,107.7,74.1,106.3,73.3,104.3 M113.9,107.5c-1.7-0.7-2.2-3.2-1.2-5.7c1-2.5,3.2-3.9,4.9-3.2c1.7,0.7,2.2,3.2,1.2,5.7
		c-0.8,2-2.5,3.4-4,3.4C114.4,107.7,114.1,107.6,113.9,107.5 M82.9,86.7c4.8-0.4,8.9,1.9,9.2,5.3c0.1,0.6,0,1.3-0.2,1.9
		c0,0,0-0.6-0.2-1.1c-0.1-0.2-0.1-0.3-0.2-0.5c-0.5-1.2-1.6-2.2-3.1-2.6c-2.2-0.5-3,0.3-3,0.3s0,0,0,0c-0.2,0.2-0.4,0.5-0.4,0.8
		c0,0.6,0.5,1.1,1.1,1.1c0.5,0,0.9-0.3,1-0.7c0,0.2,0,0.3,0,0.3c0,1.6-1.3,2.9-3,2.9c-1.6,0-3-1.3-3-3c0-0.4,0.1-0.7,0.1-0.9
		c0.1-0.8-1.1-1-2.3-0.8c-0.5,0.1-1.2,0.2-2.4,0.6c-0.7,0.2-1.4,0.7-1.4,0.7C76.3,88.8,79.3,87,82.9,86.7 M99.9,92.8
		c0-0.3,0-0.5,0-0.9c0.1-3.2,4.4-5.6,9.2-5.2c3.6,0.3,6.6,2.1,7.7,4.4c0,0-0.4-0.2-1.1-0.5c-1.5-0.7-2.9-1-4.5-1.1
		c-1.6-0.1-2.1,0.5-2.1,0.5s0,0,0,0c-0.2,0.2-0.4,0.5-0.4,0.8c0,0.6,0.5,1.1,1.1,1.1c0.5,0,0.9-0.3,1-0.7c0,0.1,0,0.1,0,0.2
		c0,1.6-1.3,3-3,3c-1.5,0-2.8-1.2-3-2.7c0,0,0-0.2-0.1-0.4c-0.1-0.8-0.7-1-1.6-0.9c-0.7,0.1-1.3,0.4-2,1.4c-0.8,1.2-1.5,5.5-1.5,5.5
		V92.8z M101.1,84.4c0,0,1.2-3.8,6-4c4.8-0.2,6.8,2.5,6.8,2.6l0.4,0.5l-0.6-0.1c0,0-2.7-0.5-6.2-0.3c-4.3,0.3-6,1.5-6,1.5l-0.6,0.4
		L101.1,84.4z M78,83.1c0.1-0.1,2-2.6,6.4-2.6c0.1,0,0.3,0,0.4,0c4.8,0.2,6,3.9,6,4l0.2,0.7l-0.6-0.4c0,0-1.7-1.1-6-1.5
		c-3.4-0.3-6.2,0.3-6.2,0.3l-0.6,0.1L78,83.1z M66.6,96c0,16.2,13.2,29.4,29.4,29.4s29.4-13.2,29.4-29.4S112.2,66.6,96,66.6
		S66.6,79.8,66.6,96 M65.8,77.3l-0.5,0.2c-3.3,1.1-9.6,2-15-4.1c-4-4.5-8.2-5.3-11-5.1c-3.2,0.2-5.7,1.6-6.7,2.6
		c2-0.2,9.3,0.3,13,6.6c4.5,7.7,8.6,8.5,13,9.3c0.8,0.1,1.5,0.3,2.3,0.5l1.6,0.4c1.1-4.5,3.2-8.7,5.9-12.3L53.5,53.5l18.1,18.1
		c2-2,4.2-3.7,6.6-5.2L41.1,41.1L65.8,77.3z M113.8,66.4c2.4,1.5,4.6,3.2,6.6,5.2l18.1-18.1l-14.9,21.8c2.7,3.6,4.7,7.8,5.9,12.3
		l1.6-0.4c0.8-0.2,1.6-0.3,2.3-0.5c4.4-0.8,8.5-1.6,13-9.3c3.7-6.4,11-6.8,13-6.6c-1.1-1-3.5-2.4-6.7-2.6c-2.8-0.2-7,0.6-11,5.1
		c-5.4,6.1-11.7,5.2-15,4.1l-0.5-0.2l24.7-36.2L113.8,66.4z M87.9,61.4l-0.5-0.2c-3.1-1.5-8.2-5.4-7.7-13.5c0.4-6-2.1-9.5-4.2-11.4
		c-2.4-2.1-5.2-2.9-6.6-2.9c1.6,1.3,6.4,6.8,4.5,13.9c-2.3,8.6,0.1,12.1,2.6,15.8c0.4,0.6,0.9,1.3,1.3,2l0.9,1.4
		c3.9-2.3,8.2-3.9,12.9-4.6L96,35.9v25.6h0c6.5,0,12.6,1.8,17.7,4.9l0.9-1.4c0.4-0.7,0.9-1.3,1.3-2c2.5-3.7,4.9-7.1,2.6-15.8
		c-1.9-7.1,3-12.6,4.5-13.9c-1.5,0-4.2,0.8-6.6,2.9c-2.1,1.9-4.6,5.4-4.2,11.4c0.5,8.1-4.6,11.9-7.6,13.5l-0.4,0.2l-8.1-43
		L87.9,61.4z M96,1.1l10.8,50.3c2-4.7-0.9-10.8,6.1-17.7c7.9-7.9,18.3-2.4,18.3-2.4c-4.9,3.1-9.5,9.2-8.2,14.4c1,4,1,6.8,0.7,8.7
		l39.4-25.4l-27.9,43.2c4.7-1.9,7-8.2,16.9-8.2c11.2,0,14.7,11.2,14.7,11.2c-5.7-1.2-13.2-0.2-16,4.4c-2.1,3.5-4.1,5.5-5.6,6.6
		L186,95c0,0.3,0,0.7,0,1c0,0,0,0,0,0.1c0,0.3,0,0.6,0,0.9c0,0.1,0,0.1,0,0.2c-0.3,24.1-10,45.9-25.6,61.8c0,0,0,0,0,0
		c-16.3,16.7-39.1,27-64.3,27c-0.4,0-0.8,0-1.2,0c-24-0.3-45.7-10-61.7-25.6l0,0C16.7,144.2,6.3,121.7,6.2,96.8c0-0.2,0-0.5,0-0.7v0
		c0,0,0,0,0-0.1h0c0-0.3,0-0.7,0-1l40.7-8.8c-1.5-1.1-3.5-3.1-5.6-6.6c-2.8-4.6-10.3-5.6-16-4.4c0,0,3.5-11.2,14.7-11.2
		c9.9,0,12.1,6.3,16.9,8.2L28.9,28.9l39.4,25.4c-0.3-1.9-0.3-4.6,0.7-8.7c1.3-5.2-3.3-11.3-8.2-14.4c0,0,10.4-5.5,18.3,2.4
		c7,7,4.1,13,6.1,17.7L96,1.1z M1,96C1,96,1,96,1,96c0,52.5,42.5,95,95,95c52.5,0,95-42.5,95-95c0,0,0,0,0,0h0c0-52.5-42.5-95-95-95
		C43.5,1,1,43.5,1,96"/>
	<path class="st1" d="M106.9,51.3c1.3-3.1,0.5-6.8,1.8-10.9L96.1,1l0.6,3.1L106.9,51.3z"/>
	<path class="st1" d="M123.1,45.6c1,4,1,6.8,0.7,8.7l6.3-4.1c-1.1-1.8-2.3-3.8-2.8-6.6c-1.3-6.7,4-12.4,4-12.4
		C126.4,34.3,121.8,40.3,123.1,45.6z"/>
	<path class="st1" d="M141.8,67.1c0.1-0.1,0.2-0.2,0.3-0.3c0.3-0.2,0.6-0.4,0.9-0.6c0.7-0.5,1.5-0.9,2.4-1.2l17.8-36.3L135.3,72
		C137.6,71.1,139.4,69,141.8,67.1z"/>
	<path class="st1" d="M150.8,79.5c-2.1,3.5-4.1,5.5-5.6,6.6l6.7,1.4l0.2,0c1.3-2.6,1.6-5.6,3.2-8.1c2.5-4,11.5-4.4,11.5-4.4
		C161.1,73.8,153.6,74.8,150.8,79.5z"/>
	<path class="st2" d="M140.7,106.8c4.1,1.7,9.1-0.2,14.9,3.8c0,0,0.6,0.5,0.7,0.5L186,97l0,0L140.7,106.8z"/>
	<path class="st2" d="M149.1,128.2c7-1.2,10.7,1.7,11.2,2.2c0,0,0,0,0,0c-1-1.2-2-2.4-3-3.4c-3.2-2.9-7.2-4.9-10.9-4
		c-4,1-6.8,1-8.7,0.7l4,6.2C144.5,129.8,146.8,128.6,149.1,128.2z"/>
	<path class="st2" d="M126.9,139.6l-6.9-4.5c1.7,4.2,6.9,6.5,8,13.9c0,0,0,0.1,0,0.1l30.7,11L126.9,139.6z"/>
	<path class="st2" d="M112.5,150.7c-3.5-2.1-5.5-4.1-6.6-5.6l-1.6,7.3c1.4,1.3,4.1,1.6,6.1,2.9c6.4,4.4,6.6,10.3,6.6,10.5
		C118,160.2,116.9,153.3,112.5,150.7z"/>
	<path class="st1" d="M85.2,51.3c-1.3-3.1-0.5-6.8-1.8-10.9L96,1l-0.6,3.1L85.2,51.3z"/>
	<path class="st1" d="M69,45.6c-1,4-1,6.8-0.7,8.7L62,50.2c1.1-1.8,2.3-3.8,2.8-6.6c1.3-6.7-4-12.4-4-12.4
		C65.7,34.3,70.3,40.3,69,45.6z"/>
	<path class="st1" d="M50.3,67.1C50.2,67,50.1,67,50,66.9c-0.3-0.2-0.5-0.4-0.9-0.6c-0.7-0.5-1.5-0.9-2.4-1.2L28.9,28.8L56.9,72
		C54.5,71.1,52.7,69,50.3,67.1z"/>
	<path class="st1" d="M41.3,79.5c2.1,3.5,4.1,5.5,5.6,6.6l-6.7,1.4l-0.2,0c-1.3-2.6-1.6-5.6-3.2-8.1c-2.5-4-11.5-4.4-11.5-4.4
		C31,73.8,38.5,74.8,41.3,79.5z"/>
	<path class="st2" d="M51.4,106.8c-4.1,1.7-9.1-0.2-14.9,3.8c0,0-0.6,0.5-0.6,0.5L6.1,97l0,0L51.4,106.8z"/>
	<path class="st2" d="M43,128.2c-7-1.2-10.7,1.7-11.2,2.2c0,0,0,0,0,0c1-1.2,2-2.4,3-3.4c3.2-2.9,7.2-4.9,10.9-4c4,1,6.8,1,8.7,0.7
		l-4,6.2C47.6,129.8,45.3,128.6,43,128.2z"/>
	<path class="st2" d="M65.2,139.6l6.9-4.5c-1.7,4.2-6.9,6.5-8,13.9c0,0,0,0.1,0,0.1l-30.7,11L65.2,139.6z"/>
	<path class="st2" d="M79.6,150.7c3.5-2.1,5.5-4.1,6.6-5.6l1.6,7.3c-1.4,1.3-4.1,1.6-6.1,2.9c-6.4,4.4-6.6,10.3-6.6,10.5
		C74.1,160.2,75.2,153.3,79.6,150.7z"/>
	<g class="st3">
		<path class="st4" d="M96,104.8c-2.7,0-4.1-1-4.6-2c0.4,1.3,1.5,3,4.6,3c3.1,0,4.3-1.8,4.7-3.1c0,0,0,0.1-0.1,0.1
			C100.1,103.9,98.7,104.8,96,104.8z"/>
		<path class="st4" d="M98,116.5c-0.5,0.3-1.1,0.5-2,0.5c-0.9,0-1.5-0.2-2-0.5c-0.5-0.3-0.8-0.6-0.8-0.6h0c0,0,0.3,2.1,2.8,2.1
			c2.5,0,2.7-2.1,2.8-2.1h0C98.8,115.9,98.5,116.2,98,116.5z"/>
	</g>
	<g>
		<path class="st5" d="M158.6,173.6h2.2v0.5H160v2.3h-0.6v-2.3h-0.8V173.6z M163.8,173.6v2.8h-0.6v-1.1c0-0.2,0-0.4,0-0.6l-0.6,1.7
			h-0.5l-0.6-1.7c0,0.2,0,0.4,0,0.6v1.1h-0.6v-2.8h0.6l0.8,2.2l0.8-2.2H163.8z"/>
	</g>
</g>
</svg>
